<svg width="45" height="44" viewBox="0 0 45 44" fill="none" xmlns="http://www.w3.org/2000/svg">
<g clip-path="url(#clip0_30_633)">
<path d="M9.90481 19.2423C9.72756 19.1262 9.46363 19.0674 9.11688 19.0674L8.82044 19.0689C8.62617 19.0674 8.42725 19.2237 8.38933 19.4126L8.11611 20.5891C8.07354 20.7795 8.19506 20.935 8.39165 20.935H8.61301C9.1045 20.935 9.4853 20.8352 9.75852 20.6339C10.0317 20.4343 10.1718 20.1502 10.1656 19.7826C10.1672 19.5395 10.0797 19.3576 9.90481 19.2423Z" fill="white"/>
<path d="M14.7423 21.9536C14.6889 21.9552 14.2794 22.0016 14.072 22.0271C13.8398 22.0604 13.6386 22.1069 13.4752 22.1618L13.0913 22.4234C13.0016 22.5364 12.959 22.6804 12.959 22.8654L13.1339 23.2044C13.2523 23.2709 13.4273 23.3035 13.6502 23.3035C13.7972 23.3035 13.9567 23.2679 14.1238 23.1997L14.4799 23.0163L14.6207 22.829C14.6765 22.6107 14.7918 22.1254 14.805 22.0651L14.7423 21.9536Z" fill="white"/>
<path d="M43.113 7.69287H1.64861C1.02632 7.69287 0.523224 8.19674 0.523224 8.81826V34.8972C0.523224 35.5187 1.02632 36.0234 1.64861 36.0234H43.113C43.7353 36.0234 44.2384 35.5195 44.2384 34.898V8.81826C44.2384 8.19674 43.7353 7.69287 43.113 7.69287ZM10.9598 21.4359C10.3437 21.8895 9.48607 22.1155 8.37771 22.117H8.1192C7.92028 22.117 7.72601 22.2734 7.68499 22.4607L7.37384 23.8059C7.32973 23.9978 7.13545 24.1511 6.93886 24.1511H6.03329C5.83669 24.1511 5.71363 23.9932 5.76007 23.8059L7.03329 18.2618C7.07973 18.0714 7.27245 17.9189 7.46904 17.9158L9.36069 17.915C9.76935 17.9189 10.1231 17.9436 10.4296 17.9994C10.7314 18.0566 10.9946 18.1526 11.2175 18.2888C11.4311 18.4235 11.6037 18.6039 11.7121 18.8221C11.8328 19.0404 11.8862 19.3136 11.8862 19.6387C11.8862 20.3817 11.5805 20.9823 10.9598 21.4359ZM16.5805 20.7285L16.5464 20.9614L15.8855 23.819C15.8468 23.9909 15.6765 24.1371 15.4961 24.158L15.4838 24.1627H15.3529H14.6579H14.6416L14.6385 24.1596C14.4659 24.1433 14.3591 23.997 14.3963 23.8206V23.819L14.3978 23.8136L14.4319 23.6681L14.4272 23.6627L14.0859 23.8879L13.7144 24.0954L13.2763 24.2455C13.1416 24.278 12.952 24.2974 12.7074 24.2974C12.3212 24.2974 11.9977 24.1913 11.7531 23.9723C11.5101 23.7486 11.3847 23.463 11.3847 23.1132C11.3847 22.7416 11.4706 22.4274 11.6432 22.1658C11.822 21.9057 12.0774 21.7029 12.4226 21.5512C12.7438 21.4049 13.13 21.2966 13.5712 21.2354C14.0217 21.1704 14.3932 21.1232 14.9079 21.0907L15.0379 21.0102L15.0542 20.8825C15.0542 20.6859 14.9629 20.5505 14.781 20.4707C14.5968 20.3933 14.3197 20.3546 13.9574 20.3546C13.7113 20.3515 13.4017 20.4019 13.1084 20.4684C12.8011 20.5381 12.7167 20.5837 12.5666 20.6286C12.4969 20.6526 12.329 20.6642 12.3916 20.3732L12.5023 19.9173C12.5023 19.9173 12.5565 19.5729 12.9009 19.4978C13.0673 19.4607 13.0937 19.4537 13.3653 19.4119C13.733 19.3554 14.0968 19.3268 14.4613 19.3268C15.1989 19.3268 15.7392 19.4227 16.0805 19.6155C16.4234 19.8074 16.5983 20.1077 16.5968 20.511L16.5805 20.7285ZM18.0364 26.3585L17.0983 26.3601C16.9033 26.3601 16.839 26.2053 16.9582 26.0149L17.7608 24.6155C17.7608 24.6155 17.8251 24.5358 17.7678 24.0791C17.644 23.254 17.0279 19.7463 17.0279 19.7463C16.983 19.5566 17.1037 19.4011 17.2988 19.4011L18.1107 19.3995C18.3591 19.3995 18.5588 19.5628 18.6037 19.7548L19.0077 22.1875L19.1579 22.189C19.2841 21.9653 20.5813 19.7393 20.5813 19.7393C20.7051 19.552 20.9559 19.3933 21.1509 19.3933C21.1509 19.3933 22.0232 19.3957 22.2376 19.3933C22.5596 19.3887 22.2129 19.9104 22.2129 19.9104L18.6029 26.0149C18.4868 26.2053 18.2299 26.3585 18.0364 26.3585ZM27.4149 21.4599C26.7964 21.9111 25.935 22.1395 24.8266 22.1395H24.5681C24.3731 22.1364 24.178 22.295 24.1331 22.4823L23.8266 23.8299C23.7817 24.0179 23.5836 24.1727 23.3916 24.1704L22.4838 24.1727C22.291 24.1735 22.1641 24.0172 22.2105 23.8291L23.4845 18.2819C23.531 18.0938 23.7214 17.9405 23.918 17.9375L25.8119 17.9359C26.2183 17.9375 26.5759 17.9661 26.8762 18.0195C27.1819 18.0752 27.4451 18.1712 27.6649 18.3082C27.8808 18.4467 28.0503 18.624 28.1633 18.8438C28.2794 19.0605 28.3359 19.3345 28.3375 19.6596C28.3375 20.4018 28.0271 21.0009 27.4149 21.4599ZM33.0325 20.7323L32.9992 20.9669L32.3367 23.8221C32.2995 23.9947 32.1285 24.141 31.9505 24.1627L31.9381 24.1673H31.8081C31.6207 24.1673 31.226 24.1673 31.1122 24.1673H31.096L31.0944 24.1627C30.9187 24.1464 30.8104 24.0009 30.8529 23.8237L30.8514 23.8214L30.8553 23.8183L30.8855 23.6727L30.88 23.6658L30.541 23.8941L30.1672 24.1008L29.7299 24.2486C29.5952 24.2834 29.4048 24.2981 29.1625 24.302C28.7755 24.302 28.4551 24.1921 28.209 23.9746C27.9644 23.7532 27.8382 23.4661 27.8382 23.1147C27.8382 22.7455 27.9242 22.4297 28.0975 22.1697C28.2748 21.9096 28.5341 21.7076 28.8762 21.5543C29.1997 21.4073 29.5882 21.3005 30.0271 21.2385C30.4745 21.1735 30.846 21.1263 31.3646 21.0946L31.4946 21.0125L31.5085 20.8848C31.5085 20.6898 31.4187 20.5528 31.2345 20.4738C31.0503 20.3957 30.7732 20.357 30.4125 20.357C30.1649 20.3554 29.8545 20.4049 29.5619 20.4707C29.2562 20.5419 29.1734 20.5861 29.024 20.631C28.9481 20.6534 28.7848 20.6666 28.8468 20.3755L28.9574 19.9204C28.9574 19.9204 29.0093 19.5752 29.3553 19.5009C29.5232 19.4645 29.5503 19.456 29.8212 19.4166C30.1865 19.3577 30.5526 19.3291 30.9172 19.3291C31.6517 19.3291 32.1912 19.4266 32.5356 19.6193C32.8808 19.8113 33.0534 20.1101 33.0534 20.5133L33.0325 20.7323ZM35.935 18.3275L34.7214 23.8237L34.6788 23.8887C34.6068 24.0435 34.4536 24.1689 34.2872 24.1689H33.4451L33.4296 24.1495C33.2694 24.1248 33.1649 23.9955 33.2028 23.8268L33.2012 23.8229L33.2376 23.6642L34.3723 18.5079L34.4125 18.3283L34.4582 18.2579C34.5317 18.1062 34.6819 17.9831 34.8483 17.9831H35.6587C35.856 17.9831 35.9745 18.1371 35.9327 18.326L35.935 18.3275ZM37.5434 17.7331H37.2399V18.1364L37.2423 18.2447L37.2632 18.3175L37.3111 18.3639L37.404 18.3786L37.4799 18.3678L37.5364 18.3508H37.5434V18.4831L37.4528 18.5009L37.3669 18.5079L37.161 18.4344L37.0906 18.2022V17.7331H36.9884V17.6077H37.0906V17.3562H37.2399V17.6077H37.5434V17.7331ZM39.0101 17.9181V18.4885H38.8638V17.9854L38.8545 17.8779L38.8351 17.7927L38.7841 17.7424L38.6858 17.7246L38.5627 17.7563L38.4365 17.8361L38.4389 17.8794L38.4404 17.9258V18.4901H38.2934V17.987L38.2872 17.8779L38.2663 17.7935L38.2167 17.7432L38.1169 17.7254L37.9954 17.7556L37.8723 17.8322V18.4901H37.7268V17.6085H37.8723V17.7068L38.0132 17.617L38.1587 17.5845L38.3119 17.6209L38.4064 17.7262L38.5689 17.617L38.7276 17.5845L38.942 17.672L39.0116 17.9181H39.0101Z" fill="white"/>
<path d="M31.195 21.958C31.1416 21.9572 30.7337 22.0052 30.5294 22.0315C30.2949 22.0648 30.0944 22.1105 29.9327 22.1662C29.767 22.2312 29.6323 22.3187 29.5449 22.4278C29.4582 22.5408 29.4149 22.6848 29.4149 22.8706L29.5921 23.2088C29.7051 23.2761 29.8777 23.3086 30.1076 23.3086C30.2523 23.3086 30.4118 23.273 30.5782 23.2057L30.9319 23.0223L31.0774 22.835C31.1316 22.6144 31.2492 22.1306 31.2585 22.0702L31.195 21.958Z" fill="white"/>
<path d="M26.353 19.2631C26.1742 19.1462 25.9141 19.089 25.5666 19.0874L25.2717 19.089C25.0766 19.0874 24.8785 19.2453 24.8382 19.4334L24.5643 20.6091C24.5201 20.7979 24.6463 20.9558 24.8421 20.9543H25.0674C25.5573 20.9543 25.9373 20.8537 26.2113 20.6571C26.4822 20.4551 26.62 20.1733 26.6184 19.8026C26.6138 19.5611 26.5294 19.3792 26.353 19.2631Z" fill="white"/>
</g>
<defs>
<clipPath id="clip0_30_633">
<rect width="43.7152" height="43.7152" fill="white" transform="translate(0.523224)"/>
</clipPath>
</defs>
</svg>
